# xmcd
#
# Track frame offsets:
#	150
#	27825
#	67181
#	87621
#	120813
#	149808
#	179517
#	214864
#	238862
#	271997
#
# Disc length: 3905 seconds
#
# Revision: 1
# Processed by: cddbd v1.5.2PL0 Copyright (c) Steve Scherf et al.
# Submitted via: audiograbber 1.83.01
#
DISCID=9b0f3f0a
DTITLE=Grateful Dead - 82-04-19 Baltimore Civic Centre, Baltimore MD
DYEAR=1900
DGENRE=
TTITLE0=Jack Straw
TTITLE1=They Love Each Other
TTITLE2=On The Road Again
TTITLE3=Peggy-O
TTITLE4=Cassidy
TTITLE5=It Must Have Been The Roses
TTITLE6=Little Red Rooster
TTITLE7=Cumberland Blues
TTITLE8=Men Smart, Women Smarter
TTITLE9=Might As Well
EXTD=
EXTT0=
EXTT1=
EXTT2=
EXTT3=
EXTT4=
EXTT5=
EXTT6=
EXTT7=
EXTT8=
EXTT9=
PLAYORDER=
